<svg width="161" height="40" viewBox="0 0 161 40" fill="none" xmlns="http://www.w3.org/2000/svg">
<path d="M0.8 2.32C3.89333 2.10666 6.62667 2 9 2C15.5867 2 18.88 4.2 18.88 8.6C18.88 10.2533 18.4 11.68 17.44 12.88C16.48 14.0533 14.9467 14.8533 12.84 15.28C14.8667 15.52 16.4667 16.1333 17.64 17.12C18.8133 18.1067 19.4 19.8267 19.4 22.28C19.4 27.4267 16.1067 30 9.52 30H0.8V2.32ZM4.12 29.6H9.52C11.8933 29.6 13.5733 28.9867 14.56 27.76C15.5733 26.5067 16.08 24.6 16.08 22.04C16.08 19.48 15.5733 17.7733 14.56 16.92C13.5467 16.0667 12.04 15.6133 10.04 15.56H4.12V29.6ZM9 2.4C7.45333 2.4 5.82667 2.49333 4.12 2.68V15.16H10.04C13.8 15 15.68 12.84 15.68 8.68C15.68 6.65333 15.12 5.10667 14 4.04C12.88 2.94666 11.2133 2.4 9 2.4ZM27.4925 30C25.1458 30 23.6658 29.3867 23.0525 28.16C22.9192 27.8933 22.8525 27.6533 22.8525 27.44V0.0399995H25.6525V27.16C25.6525 27.9333 25.7992 28.5333 26.0925 28.96C26.4125 29.36 26.7325 29.5733 27.0525 29.6L27.4925 29.68H28.7325V30H27.4925ZM39.2363 30.16C36.4363 30.16 34.1563 29.36 32.3963 27.76C30.6363 26.16 29.7563 23.6933 29.7563 20.36C29.7563 17.0267 30.6629 14.44 32.4763 12.6C34.3163 10.76 36.6363 9.84 39.4363 9.84C42.2629 9.84 44.5563 10.64 46.3163 12.24C48.0763 13.84 48.9563 16.3067 48.9563 19.64C48.9563 22.9733 48.0363 25.56 46.1963 27.4C44.3829 29.24 42.0629 30.16 39.2363 30.16ZM39.5163 10.16C37.4896 10.16 35.8096 11.0667 34.4763 12.88C33.1429 14.6667 32.4763 17.1733 32.4763 20.4C32.4763 23.6 33.0896 25.9733 34.3163 27.52C35.5429 29.0667 37.1696 29.84 39.1963 29.84C41.2229 29.84 42.9029 28.9467 44.2363 27.16C45.5696 25.3467 46.2363 22.84 46.2363 19.64C46.2363 16.4133 45.6229 14.0267 44.3963 12.48C43.1696 10.9333 41.5429 10.16 39.5163 10.16ZM51.9391 20.72C51.9391 17.2533 52.7791 14.5733 54.4591 12.68C56.1391 10.7867 58.6591 9.84 62.0191 9.84C64.4991 9.84 67.0191 10.28 69.5791 11.16V30.48C69.5524 36.8267 66.7791 40 61.2591 40C58.2191 40 55.6191 39.0133 53.4591 37.04L53.7391 36.8C56.0324 38.72 58.5391 39.68 61.2591 39.68C64.9391 39.68 66.7791 36.6133 66.7791 30.48V26.52C66.2724 27.4533 65.4324 28.28 64.2591 29C63.0857 29.72 61.6991 30.08 60.0991 30.08C54.6591 29.9467 51.9391 26.8267 51.9391 20.72ZM60.1391 29.76C61.9257 29.76 63.4591 29.28 64.7391 28.32C66.0191 27.36 66.6991 26.4133 66.7791 25.48V11.36C64.8591 10.56 63.2324 10.16 61.8991 10.16C59.5257 10.16 57.7391 11.0933 56.5391 12.96C55.3391 14.8 54.7391 17.3867 54.7391 20.72C54.7391 26.7467 56.5391 29.76 60.1391 29.76ZM94.3619 30H91.0419V2.4H84.1219V2H101.322V2.4H94.3619V30ZM107.43 30C106.337 30 105.497 29.76 104.91 29.28C104.35 28.8 104.057 28.32 104.03 27.84L103.99 27.16V10H106.79V27.16C106.79 27.9333 106.937 28.5333 107.23 28.96C107.55 29.36 107.857 29.5733 108.15 29.6L108.63 29.68H109.87V30H107.43ZM104.23 5.52C103.91 5.2 103.75 4.8 103.75 4.32C103.75 3.84 103.91 3.44 104.23 3.12C104.55 2.77333 104.95 2.6 105.43 2.6C105.91 2.6 106.31 2.77333 106.63 3.12C106.977 3.44 107.15 3.84 107.15 4.32C107.15 4.8 106.977 5.2 106.63 5.52C106.31 5.84 105.91 6 105.43 6C104.95 6 104.55 5.84 104.23 5.52ZM136.415 14.6C136.415 12.9733 136.202 11.8267 135.775 11.16C135.349 10.4933 134.535 10.16 133.335 10.16C131.735 10.16 130.309 10.8267 129.055 12.16C127.829 13.4933 127.215 14.6933 127.215 15.76V30H124.415V14.6C124.415 12.9733 124.202 11.8267 123.775 11.16C123.349 10.4933 122.442 10.16 121.055 10.16C119.669 10.16 118.349 10.8 117.095 12.08C115.869 13.36 115.202 14.5467 115.095 15.64V30H112.295V10H115.095V14.52C115.522 13.3733 116.309 12.3067 117.455 11.32C118.602 10.3333 119.882 9.84 121.295 9.84C122.709 9.84 123.829 9.97333 124.655 10.24C125.509 10.48 126.109 10.8667 126.455 11.4C126.802 11.9333 127.015 12.4 127.095 12.8C127.175 13.2 127.215 13.76 127.215 14.48C127.642 13.3333 128.415 12.28 129.535 11.32C130.655 10.3333 131.855 9.84 133.135 9.84C134.415 9.84 135.442 9.94667 136.215 10.16C136.989 10.3733 137.562 10.6133 137.935 10.88C138.335 11.1467 138.629 11.5333 138.815 12.04C139.029 12.5467 139.149 12.96 139.175 13.28C139.202 13.6 139.215 14.0533 139.215 14.64V27.16C139.215 27.9333 139.362 28.5333 139.655 28.96C139.975 29.36 140.295 29.5733 140.615 29.6L141.055 29.68H142.295V30H139.855C138.762 30 137.922 29.76 137.335 29.28C136.775 28.8 136.482 28.32 136.455 27.84L136.415 27.16V14.6ZM146.226 20.24C146.226 23.5467 146.8 25.9733 147.946 27.52C149.12 29.0667 150.653 29.84 152.546 29.84C155.213 29.84 157.586 29.44 159.666 28.64L159.786 28.92C157.653 29.7467 155.24 30.16 152.546 30.16C149.88 30.16 147.706 29.36 146.026 27.76C144.346 26.16 143.506 23.6933 143.506 20.36C143.506 17.0267 144.386 14.44 146.146 12.6C147.906 10.76 150.146 9.84 152.866 9.84C155.053 9.84 156.893 10.4933 158.386 11.8C159.88 13.1067 160.626 15.04 160.626 17.6C160.626 17.7333 160.626 17.8667 160.626 18H146.346C146.266 18.72 146.226 19.4667 146.226 20.24ZM157.906 17.68C157.88 15.12 157.386 13.2267 156.426 12C155.466 10.7733 154.226 10.16 152.706 10.16C151.186 10.16 149.826 10.8267 148.626 12.16C147.453 13.4933 146.706 15.3333 146.386 17.68H157.906Z" fill="black"/>
</svg>
